<?xml version="1.0" encoding="UTF-8" standalone="no"?>
<!-- Created with Inkscape (http://www.inkscape.org/) -->

<svg
   width="138.45387mm"
   height="138.45387mm"
   viewBox="0 0 138.45387 138.45387"
   version="1.1"
   id="svg1"
   inkscape:version="1.3 (0e150ed6c4, 2023-07-21)"
   sodipodi:docname="Sushi0.svg"
   xmlns:inkscape="http://www.inkscape.org/namespaces/inkscape"
   xmlns:sodipodi="http://sodipodi.sourceforge.net/DTD/sodipodi-0.dtd"
   xmlns:xlink="http://www.w3.org/1999/xlink"
   xmlns="http://www.w3.org/2000/svg"
   xmlns:svg="http://www.w3.org/2000/svg">
  <sodipodi:namedview
     id="namedview1"
     pagecolor="#505050"
     bordercolor="#eeeeee"
     borderopacity="1"
     inkscape:showpageshadow="0"
     inkscape:pageopacity="0"
     inkscape:pagecheckerboard="0"
     inkscape:deskcolor="#505050"
     inkscape:document-units="mm"
     inkscape:zoom="0.72426347"
     inkscape:cx="249.2187"
     inkscape:cy="227.12729"
     inkscape:window-width="1920"
     inkscape:window-height="1009"
     inkscape:window-x="-8"
     inkscape:window-y="-8"
     inkscape:window-maximized="1"
     inkscape:current-layer="layer1" />
  <defs
     id="defs1">
    <pattern
       inkscape:collect="always"
       xlink:href="#WireFence"
       preserveAspectRatio="xMidYMid"
       id="pattern17"
       patternTransform="scale(0.1)"
       x="0"
       y="0" />
    <pattern
       patternUnits="userSpaceOnUse"
       width="52"
       height="61.14"
       id="WireFence"
       patternTransform="scale(0.3,0.3)"
       preserveAspectRatio="xMidYMid"
       style="fill:#000000"
       inkscape:label="Wire Fence"
       inkscape:collect="always"
       inkscape:isstock="true">
      <path
         id="rect9"
         style="stroke:none"
         d="m 31.437499,0 7.257813,7.2578126 c -0.879538,1.3312883 -0.879117,3.0161644 10e-7,4.3476564 L 26.072266,24.228516 14,36.300782 0,22.302735 v 2.828124 l 12.640625,12.640625 c -0.89873,1.34129 -0.898729,3.115742 0,4.457031 L 0,54.86914 v 2.828126 l 14,-14 17.443359,17.443359 2.828125,10e-7 -18.912109,-18.91211 c 0.898055,-1.340861 0.898042,-3.116186 0,-4.457031 L 27.488281,25.642578 40,13.128906 l 12.000001,12 L 52,22.300781 41.302734,11.605469 c 0.879644,-1.331587 0.879713,-3.0161029 0,-4.3476564 L 48.560547,0 H 45.732422 L 40,5.732422 34.267578,0 Z M 52,54.869141 l -6.271484,6.271484 2.828124,0 L 52,57.697265 Z" />
    </pattern>
    <pattern
       inkscape:collect="always"
       xlink:href="#pattern15-8"
       preserveAspectRatio="xMidYMid"
       id="pattern4"
       patternTransform="matrix(0.3,0,0,0.3,445,105)"
       x="0"
       y="0" />
    <pattern
       patternUnits="userSpaceOnUse"
       width="20"
       height="20"
       patternTransform="translate(445,105)"
       preserveAspectRatio="xMidYMid"
       style="fill:#000000"
       id="pattern15-8"
       inkscape:label="Inverted braid"
       inkscape:collect="always"
       inkscape:isstock="true">
      <path
         style="stroke-width:4.8561;stroke-linecap:square;paint-order:stroke markers fill;stop-color:#000000"
         d="M 0,0 V 10 H 10 C 5,10 0,5 0,0 Z M 10,10 V 0 H 20 C 15,0 10,5 10,10 Z m 0,10 V 10 H 0 c 5,0 10,5 10,10 z M 20,10 V 20 H 10 c 5,0 10,-5 10,-10 z"
         id="path11-3"
         sodipodi:nodetypes="cccc" />
    </pattern>
  </defs>
  <g
     inkscape:label="Layer 1"
     inkscape:groupmode="layer"
     id="layer1"
     transform="translate(-39.088562,-71.966789)">
    <circle
       style="fill:#0c1500;fill-opacity:1;stroke-width:0.264583"
       id="path1"
       cx="108.3155"
       cy="141.19373"
       r="69.226936" />
    <circle
       style="fill:#b3b3b3;fill-opacity:1;stroke-width:0.245036"
       id="path1-3"
       cx="108.38525"
       cy="141.45802"
       r="64.112549" />
    <circle
       style="fill:url(#pattern4);fill-opacity:1;stroke-width:0.245036"
       id="path1-3-6"
       cx="108.56258"
       cy="141.63541"
       r="64.112549" />
    <circle
       style="fill:#255a00;fill-opacity:1;stroke-width:0.115188"
       id="path1-3-6-7"
       cx="108.56255"
       cy="141.37073"
       r="30.138378" />
    <circle
       style="mix-blend-mode:normal;fill:url(#pattern17);fill-opacity:1;stroke-width:0.115188"
       id="path1-3-6-7-0"
       cx="108.45509"
       cy="141.52792"
       r="30.138378" />
  </g>
</svg>
