<?xml version="1.0" encoding="UTF-8" standalone="no"?>
<!-- Created with Inkscape (http://www.inkscape.org/) -->

<svg
   width="138.6312mm"
   height="138.63126mm"
   viewBox="0 0 138.6312 138.63126"
   version="1.1"
   id="svg1"
   inkscape:version="1.3 (0e150ed6c4, 2023-07-21)"
   sodipodi:docname="Sushi3.svg"
   xmlns:inkscape="http://www.inkscape.org/namespaces/inkscape"
   xmlns:sodipodi="http://sodipodi.sourceforge.net/DTD/sodipodi-0.dtd"
   xmlns:xlink="http://www.w3.org/1999/xlink"
   xmlns="http://www.w3.org/2000/svg"
   xmlns:svg="http://www.w3.org/2000/svg">
  <sodipodi:namedview
     id="namedview1"
     pagecolor="#505050"
     bordercolor="#eeeeee"
     borderopacity="1"
     inkscape:showpageshadow="0"
     inkscape:pageopacity="0"
     inkscape:pagecheckerboard="0"
     inkscape:deskcolor="#505050"
     inkscape:document-units="mm"
     inkscape:zoom="0.72426347"
     inkscape:cx="249.2187"
     inkscape:cy="286.49795"
     inkscape:window-width="1920"
     inkscape:window-height="1009"
     inkscape:window-x="-8"
     inkscape:window-y="-8"
     inkscape:window-maximized="1"
     inkscape:current-layer="layer1" />
  <defs
     id="defs1">
    <pattern
       inkscape:collect="always"
       xlink:href="#ap103"
       preserveAspectRatio="xMidYMid"
       id="pattern24"
       patternTransform="matrix(0.01,0,0,0.01,1179.9665,34.884847)"
       x="0"
       y="0" />
    <pattern
       patternUnits="userSpaceOnUse"
       preserveAspectRatio="xMidYMid"
       width="377.9492"
       height="377.95404"
       patternTransform="translate(1179.9665,34.884847) scale(0.2)"
       id="ap103"
       inkscape:collect="always"
       inkscape:isstock="true"
       inkscape:label="ap103">
      <path
         id="path85"
         style="color:#000000;fill:#f32500;stroke:none;stroke-width:2.87882;paint-order:markers fill stroke"
         d="M 155.35019,0 148.4459,0.03023622 148.57251,32.611691 H 32.360239 V 36.064554 148.57251 L 0.03023622,148.4459 0,155.35612 l 32.359786,0.12661 v 66.99421 l -32.35827419,0.12661 0.02645669,6.91023 32.3300035,-0.12926 V 346.08918 H 148.56722 l -0.12359,31.83462 6.90429,0.0302 0.12661,-31.86436 h 66.99719 l 0.12359,31.86285 6.91023,-0.0265 -0.12359,-31.83462 H 345.83369 V 229.38826 l 32.08906,0.12812 0.0265,-6.91022 -32.11729,-0.12661 v -66.99568 l 32.11729,-0.1251 -0.0302,-6.91023 -32.08755,0.1251 V 32.614299 H 229.37669 L 229.50293,0.03137008 222.59271,0.00491339 222.46647,32.616113 H 155.47521 Z M 39.270312,39.521424 H 148.59912 l 0.0937,23.96039 c 0.0416,10.547377 -4.0845,19.376958 -11.1501,25.199622 -7.06564,5.822703 -17.18298,8.726665 -29.63731,6.71384 C 96.595162,93.56742 91.649424,87.98623 89.284271,81.918501 86.919156,75.850772 87.765279,68.855622 88.867691,66.360454 c 4.41687,-9.996775 18.373189,-12.932297 26.443349,-4.486829 4.53971,4.750866 4.61405,9.261997 3.75636,13.134652 -0.85772,3.872693 -2.80577,6.578495 -2.80577,6.578495 l 5.5773,4.076182 c 0,0 2.77984,-3.763011 3.97504,-9.159571 1.1952,-5.396599 0.65004,-12.956826 -5.51032,-19.403641 -11.3794,-11.908687 -31.369174,-7.989052 -37.755556,6.465373 -1.955867,4.426847 -2.674318,11.293531 -0.528113,18.454564 -3.181342,-0.952592 -6.305461,-1.340788 -9.181909,-1.306167 h -0.0015 c -3.598715,0.04346 -6.811011,0.745814 -9.271143,1.832768 -14.454463,6.386381 -18.374135,26.38363 -6.465411,37.76304 6.446816,6.16036 14.00708,6.69955 19.403641,5.50435 5.396561,-1.19524 9.159572,-3.96911 9.159572,-3.96911 l -4.076183,-5.57877 c 0,0 -2.705802,1.94804 -6.578494,2.80577 -3.872656,0.85773 -8.383786,0.77892 -13.134615,-3.76082 -8.445505,-8.07012 -5.515956,-22.026482 4.480857,-26.443351 2.495169,-1.102413 9.496252,-1.950085 15.563981,0.415068 6.067729,2.365115 11.642986,7.318337 13.470841,18.628573 2.012825,12.45437 -0.885203,22.56582 -6.707905,29.63142 -5.822665,7.0656 -14.652246,11.19145 -25.199622,11.15006 l -24.211805,-0.0937 z m 116.237518,0 h 66.93623 l -0.0937,23.936579 c -0.0302,7.714885 1.89445,14.882079 5.45379,20.927055 -12.06342,-4.454967 -25.10147,-6.890872 -38.70471,-6.890872 -13.72222,0 -26.86836,2.480315 -39.02007,7.00989 3.6039,-6.069582 5.55417,-13.281033 5.52374,-21.046073 z m 73.84645,0 H 338.92554 V 148.5973 l -24.4543,0.0953 c -10.54733,0.0416 -19.37692,-4.08446 -25.19962,-11.15006 -5.82266,-7.0656 -8.72666,-17.17705 -6.71384,-29.63142 1.82786,-11.310239 7.40905,-16.263461 13.47682,-18.628576 6.06772,-2.365152 13.06284,-1.51748 15.558,-0.415067 9.99678,4.416869 12.9323,18.373233 4.48683,26.443353 -4.75083,4.5397 -9.26196,4.61854 -13.13465,3.76082 -3.87265,-0.85773 -6.57846,-2.80577 -6.57846,-2.80577 l -4.07622,5.57877 c 0,0 3.76305,2.77387 9.15958,3.96911 5.39659,1.1952 12.95682,0.65597 19.40367,-5.50436 11.90865,-11.3794 7.98906,-31.376651 -6.46541,-37.763032 -2.46013,-1.086954 -5.67243,-1.789115 -9.27118,-1.832768 h -10e-4 c -2.87607,-0.03402 -5.99955,0.353763 -9.18044,1.306167 2.14666,-7.161487 1.42787,-14.027452 -0.52811,-18.454564 -6.38635,-14.454463 -26.37763,-18.37561 -37.75707,-6.466885 -6.16032,6.446853 -6.70552,14.007118 -5.51032,19.403678 1.1952,5.396523 3.97504,9.159534 3.97504,9.159534 l 5.5773,-4.076182 c 0,0 -1.9525,-2.705802 -2.81023,-6.578457 -0.85765,-3.872693 -0.77885,-8.383861 3.76086,-13.134652 8.07016,-8.445506 22.02644,-5.510022 26.44331,4.486828 1.10245,2.495169 1.95005,9.490318 -0.41507,15.558048 -2.36511,6.067729 -7.3124,11.650393 -18.62264,13.478248 -12.45433,2.012863 -22.57171,-0.891137 -29.63735,-6.713839 -7.06564,-5.822665 -11.19141,-14.653757 -11.15006,-25.201096 z m -43.70774,44.939527 v 40.381269 h -24.1999 v -18.29091 l -4.73378,1.89532 c -9.93426,3.97326 -18.83369,9.65378 -26.43886,16.6083 L 117.66452,112.44548 C 135.60824,95.770545 159.4012,85.307943 185.64654,84.460951 Z m 6.90425,0 c 26.24598,0.846728 50.03951,11.30914 67.98353,27.984529 l -12.57377,12.57377 c -7.61325,-6.96915 -16.525,-12.6604 -26.47457,-16.6396 l -4.73374,-1.89528 v 5.09972 13.25813 h -24.20145 z m -91.8085,16.282509 c 1.87101,0.62101 3.88796,1.12142 6.06225,1.4728 3.95319,0.6389 7.76704,0.83883 11.40147,0.63822 -5.59465,4.59197 -10.73802,9.71387 -15.34976,15.29174 0.1954,-3.61471 -0.008,-7.40739 -0.64119,-11.33753 -0.3515,-2.17549 -0.85131,-4.19312 -1.47277,-6.06523 z m 176.46882,0 c -0.6215,1.87211 -1.12123,3.88974 -1.4728,6.06523 -0.6175,3.82069 -0.82303,7.51042 -0.65458,11.03403 -4.54258,-5.45484 -9.59199,-10.47281 -15.07903,-14.97785 3.55737,0.17764 7.28523,-0.0265 11.14564,-0.65012 2.17383,-0.35149 4.19006,-0.85047 6.06077,-1.47129 z m -53.55462,16.37329 c 14.2523,6.81834 25.92378,17.50261 33.91586,30.4868 h -65.02156 v -15.85111 h 31.1057 z m -69.12007,0.0684 v 14.56724 h 31.11012 v 15.85111 h -64.98138 c 7.99037,-12.95338 19.64583,-23.61127 33.87126,-30.41835 z m -41.7797,0.12661 12.60352,12.60352 c -14.7538,15.81211 -23.45409,36.90145 -23.47393,59.43088 v 0.008 c 0.0189,22.24301 8.49196,43.09103 22.90564,58.83583 l -12.59758,12.59758 c -17.401664,-18.72775 -28.042584,-43.8251 -28.042584,-71.43341 0,-27.90516 10.869505,-53.24897 28.604934,-72.04037 z m 152.68392,0 c 17.7354,18.7914 28.60642,44.13521 28.60642,72.04037 0,18.78909 -4.93221,36.41374 -13.56458,51.66229 -0.1319,0.22828 -0.2623,0.45838 -0.38978,0.69025 -3.97232,6.89465 -8.70951,13.29067 -14.0897,19.08087 l -12.59611,-12.59611 c 14.41569,-15.74483 22.89184,-36.59372 22.91161,-58.8373 -0.002,-22.53899 -8.6948,-43.64478 -23.44717,-59.47106 z M 84.305046,150.19223 c -4.562873,12.19071 -7.063484,25.38482 -7.063484,39.15991 0,13.41774 2.369651,26.28567 6.709418,38.21076 -5.953966,-3.40014 -12.963969,-5.23786 -20.497134,-5.2083 l -24.183534,0.0952 v -66.94065 l 24.18206,0.0937 c 7.68291,0.0302 14.823458,-1.87952 20.852674,-5.41062 z m 209.655724,0.17839 c 5.96307,3.41575 12.9891,5.26175 20.54022,5.23211 l 24.42455,-0.0952 v 66.94216 l -24.42455,-0.0952 c -7.40417,-0.0302 -14.30464,1.74364 -20.19213,5.03278 4.29933,-11.87596 6.64842,-24.68311 6.64842,-38.03524 0,-13.70763 -2.47616,-26.84054 -6.99651,-38.98141 z m -176.49113,2.91137 h 68.1769 v 16.72736 h -74.45189 c 1.46543,-5.83125 3.57932,-11.43678 6.27499,-16.72736 z m 75.08115,0 h 68.21118 c 2.68989,5.2913 4.79848,10.89664 6.25859,16.72736 h -74.46977 z m -82.62066,22.76134 h 28.68824 v 26.22315 h -28.7537 c -0.69683,-4.22313 -1.07025,-8.53859 -1.07411,-12.92043 0.004,-4.51449 0.40041,-8.95793 1.13957,-13.30272 z m 40.60293,0 h 35.11348 v 26.22315 h -35.11348 z m 42.01773,0 h 36.60412 v 26.22315 h -36.60412 z m 48.51889,0 h 27.20946 c 0.73546,4.34483 1.12842,8.78876 1.12914,13.30272 -0.004,4.3821 -0.37856,8.69715 -1.07558,12.92043 h -27.26302 z m -129.96873,32.25713 h 74.54559 v 16.72736 h -68.37921 c -2.6603,-5.29357 -4.73333,-10.90024 -6.16638,-16.72736 z m 81.44984,0 h 74.54566 c -1.43319,5.82663 -3.50479,11.43432 -6.1649,16.72736 H 192.55079 Z M 63.482117,229.26025 c 10.547376,-0.0416 19.378431,4.08294 25.201133,11.14858 5.822665,7.0656 8.720693,17.18298 6.707906,29.63736 -1.827893,11.31019 -7.404624,16.25748 -13.472353,18.6226 -6.067729,2.36511 -13.068812,1.51903 -15.563981,0.41658 -9.996775,-4.41683 -12.926362,-18.36873 -4.480857,-26.43889 4.750829,-4.53971 9.261959,-4.61851 13.134615,-3.76082 3.872692,0.85772 6.578494,2.80577 6.578494,2.80577 l 4.076183,-5.5773 c 0,0 -3.763011,-2.78132 -9.159572,-3.97652 -5.396561,-1.19524 -12.956825,-0.65004 -19.403641,5.51029 -11.908724,11.37944 -7.987578,31.37072 6.466885,37.75706 4.42681,1.95583 11.292095,2.67428 18.453052,0.52812 -2.146167,7.16095 -1.427754,14.02771 0.528113,18.45456 6.386382,14.45446 26.376156,18.3741 37.755556,6.46537 6.16036,-6.44681 6.70552,-14.00114 5.51032,-19.3977 -1.1952,-5.39653 -3.97504,-9.16551 -3.97504,-9.16551 l -5.5773,4.07618 c 0,0 1.94805,2.70581 2.80577,6.5785 0.85769,3.87265 0.78331,8.38378 -3.75636,13.13465 -8.07016,8.44547 -22.026479,5.51592 -26.443349,-4.48089 -1.102412,-2.49521 -1.948535,-9.49028 0.41658,-15.55805 2.365153,-6.06773 7.312403,-11.64892 18.622599,-13.47678 12.45442,-2.01282 22.57024,0.88521 29.63588,6.70791 7.0656,5.82266 11.19149,14.65225 11.1501,25.19962 l -0.0968,24.70723 H 39.270236 V 229.35693 Z m 250.990603,0 24.45282,0.0983 V 339.17828 H 229.35723 l -0.0968,-24.70722 c -0.0416,-10.54738 4.08446,-19.37844 11.15006,-25.2011 0.81385,-0.67072 1.66953,-1.3008 2.56324,-1.89086 1.12433,-0.61969 2.23502,-1.25926 3.3354,-1.91611 6.40365,-3.16305 14.4167,-4.40749 23.73872,-2.90094 11.31027,1.82786 16.25752,7.41052 18.62264,13.47825 2.36511,6.06777 1.51751,13.06284 0.41506,15.55805 -4.41687,9.99681 -18.37319,12.92636 -26.44331,4.48089 -4.5397,-4.7509 -4.61851,-9.26199 -3.76086,-13.13465 0.85773,-3.87269 2.81023,-6.57849 2.81023,-6.57849 l -5.57729,-4.07619 c 0,0 -2.77985,3.76748 -3.97505,9.16404 -1.1952,5.39656 -0.65,12.95236 5.51033,19.39918 11.3794,11.90876 31.36925,7.98758 37.75559,-6.46689 1.95571,-4.42654 2.67522,-11.29258 0.52959,-18.45305 7.16054,2.14575 14.02647,1.42764 18.45305,-0.52811 14.45446,-6.38635 18.37557,-26.37763 6.46688,-37.75707 -6.44689,-6.16032 -14.00855,-6.70401 -19.40515,-5.50881 -5.39652,1.19524 -9.15806,3.97504 -9.15806,3.97504 l 4.07618,5.5773 c 0,0 2.70584,-1.94804 6.57846,-2.80577 3.87269,-0.85769 8.38382,-0.77888 13.13465,3.76082 8.44547,8.07016 5.50995,22.02206 -4.48679,26.43889 -2.49521,1.10245 -9.49032,1.94854 -15.55808,-0.41658 -6.0677,-2.36511 -11.6504,-7.3124 -13.47825,-18.6226 -2.01283,-12.45438 0.89117,-22.57176 6.71384,-29.63736 5.8227,-7.06563 14.65379,-11.18993 25.20109,-11.14858 z m -194.04707,1.44597 h 65.22089 v 16.06983 h -31.11012 v 14.74277 c -14.36875,-6.87534 -26.11499,-17.68105 -34.11077,-30.8126 z m 72.12514,0 h 65.22244 c -7.99669,13.13208 -19.74592,23.93764 -34.11674,30.8126 v -14.74277 h -31.1057 z m -62.89266,22.38349 c 7.73733,7.21278 16.85352,13.08616 27.05473,17.1662 l 4.73378,1.89532 v -18.46496 h 24.1999 v 40.55086 c -26.54045,-0.85641 -50.57556,-11.54344 -68.5875,-28.54538 z m 118.88111,0.003 12.59909,12.59905 c -5.44876,5.14322 -11.44724,9.70984 -17.90113,13.60029 -1.44491,0.71082 -2.8289,1.50501 -4.14765,2.37729 -13.91014,7.54193 -29.72262,12.02536 -46.53876,12.5678 v -40.55086 h 24.20145 v 18.46496 l 4.73374,-1.89532 c 10.20008,-4.07936 19.31588,-9.95183 27.05326,-17.16321 z m -145.64875,7.50527 c 4.34219,5.24678 9.15754,10.08711 14.37385,14.46463 -0.0835,-0.003 -0.1663,-0.008 -0.24983,-0.0113 v -0.002 c -3.27352,-0.10053 -6.68636,0.12246 -10.2099,0.69181 -2.17376,0.35149 -4.19017,0.85077 -6.06077,1.47129 0.62146,-1.87185 1.12119,-3.88974 1.4728,-6.06523 0.58931,-3.64649 0.8019,-7.17313 0.67393,-10.55056 z m 172.15903,0.3035 c -0.10393,3.28467 0.11717,6.71013 0.68879,10.24705 0.35149,2.17497 0.85152,4.19225 1.4728,6.06373 -1.87071,-0.62053 -3.88694,-1.11848 -6.06077,-1.46979 -3.52086,-0.56904 -6.93268,-0.79207 -10.20393,-0.6918 5.10958,-4.28924 9.8313,-9.02449 14.10311,-14.14919 z m -124.42121,33.50528 c 11.99773,4.39998 24.95611,6.80311 38.47109,6.80311 13.4027,0 26.25683,-2.36556 38.17062,-6.696 -3.2163,5.8424 -4.94842,12.66686 -4.9197,19.98535 l 0.0968,24.67896 H 155.505 l 0.0983,-24.67748 c 0.0302,-7.36271 -1.72097,-14.22819 -4.97477,-20.09394 z" />
    </pattern>
    <clipPath
       clipPathUnits="userSpaceOnUse"
       id="clipPath51">
      <path
         id="path51"
         style="stroke-width:0.0999999;stroke-linecap:square;paint-order:markers fill stroke;stop-color:#000000"
         d="m 1806.4991,-753.5228 h 1637.2646 v 66.90533 H 1806.4991 Z" />
    </clipPath>
    <pattern
       inkscape:collect="always"
       xlink:href="#WireFence"
       preserveAspectRatio="xMidYMid"
       id="pattern17"
       patternTransform="matrix(0.14110492,0,0,0.14110492,-44.602466,-58.142634)"
       x="0"
       y="0" />
    <pattern
       patternUnits="userSpaceOnUse"
       width="52"
       height="61.14"
       id="WireFence"
       patternTransform="scale(0.3,0.3)"
       preserveAspectRatio="xMidYMid"
       style="fill:#000000"
       inkscape:label="Wire Fence"
       inkscape:collect="always"
       inkscape:isstock="true">
      <path
         id="rect9"
         style="stroke:none"
         d="m 31.437499,0 7.257813,7.2578126 c -0.879538,1.3312883 -0.879117,3.0161644 10e-7,4.3476564 L 26.072266,24.228516 14,36.300782 0,22.302735 v 2.828124 l 12.640625,12.640625 c -0.89873,1.34129 -0.898729,3.115742 0,4.457031 L 0,54.86914 v 2.828126 l 14,-14 17.443359,17.443359 2.828125,10e-7 -18.912109,-18.91211 c 0.898055,-1.340861 0.898042,-3.116186 0,-4.457031 L 27.488281,25.642578 40,13.128906 l 12.000001,12 L 52,22.300781 41.302734,11.605469 c 0.879644,-1.331587 0.879713,-3.0161029 0,-4.3476564 L 48.560547,0 H 45.732422 L 40,5.732422 34.267578,0 Z M 52,54.869141 l -6.271484,6.271484 2.828124,0 L 52,57.697265 Z" />
    </pattern>
    <pattern
       inkscape:collect="always"
       xlink:href="#pattern15-8"
       preserveAspectRatio="xMidYMid"
       id="pattern4"
       patternTransform="matrix(0.32389857,0,0,0.32389857,471.80831,102.08862)"
       x="0"
       y="0" />
    <pattern
       patternUnits="userSpaceOnUse"
       width="20"
       height="20"
       patternTransform="translate(445,105)"
       preserveAspectRatio="xMidYMid"
       style="fill:#000000"
       id="pattern15-8"
       inkscape:label="Inverted braid"
       inkscape:collect="always"
       inkscape:isstock="true">
      <path
         style="stroke-width:4.8561;stroke-linecap:square;paint-order:stroke markers fill;stop-color:#000000"
         d="M 0,0 V 10 H 10 C 5,10 0,5 0,0 Z M 10,10 V 0 H 20 C 15,0 10,5 10,10 Z m 0,10 V 10 H 0 c 5,0 10,5 10,10 z M 20,10 V 20 H 10 c 5,0 10,-5 10,-10 z"
         id="path11-3"
         sodipodi:nodetypes="cccc" />
    </pattern>
  </defs>
  <g
     inkscape:label="Layer 1"
     inkscape:groupmode="layer"
     id="layer1"
     transform="translate(-39.15831,-72.231087)">
    <circle
       style="fill:#b3b3b3;fill-opacity:1;stroke-width:0.264556"
       id="path1-3"
       cx="108.37818"
       cy="141.45096"
       r="69.219872" />
    <circle
       style="fill:url(#pattern4);fill-opacity:1;stroke-width:0.264556"
       id="path1-3-6"
       cx="108.56964"
       cy="141.64247"
       r="69.219872" />
    <circle
       style="fill:#af4b00;fill-opacity:1;stroke-width:0.162536"
       id="path1-3-6-7"
       cx="108.58464"
       cy="141.33842"
       r="42.526733" />
    <circle
       style="mix-blend-mode:normal;fill:url(#pattern17);fill-opacity:1;stroke-width:0.162536"
       id="path1-3-6-7-0"
       cx="108.43301"
       cy="141.56023"
       r="42.526733" />
    <circle
       style="mix-blend-mode:normal;fill:#591600;fill-opacity:1;stroke-width:0.137305"
       id="path1-3-6-7-0-3"
       cx="108.96297"
       cy="141.48514"
       r="35.925266" />
    <circle
       style="mix-blend-mode:normal;fill:url(#pattern24);fill-opacity:1;stroke-width:0.137305"
       id="path1-3-6-7-0-3-3"
       cx="108.59839"
       cy="141.42856"
       r="35.925266" />
    <circle
       style="mix-blend-mode:normal;fill:#aeaeae;fill-opacity:1;stroke-width:0.0759704"
       id="path1-3-6-7-0-3-3-8"
       cx="108.62421"
       cy="141.43236"
       r="19.877287" />
  </g>
</svg>
