<?xml version="1.0" encoding="UTF-8" standalone="no"?>
<!-- Created with Inkscape (http://www.inkscape.org/) -->

<svg
   width="132.59473mm"
   height="132.59473mm"
   viewBox="0 0 132.59473 132.59473"
   version="1.1"
   id="svg1"
   inkscape:version="1.3 (0e150ed6c4, 2023-07-21)"
   sodipodi:docname="Sushi5.svg"
   xmlns:inkscape="http://www.inkscape.org/namespaces/inkscape"
   xmlns:sodipodi="http://sodipodi.sourceforge.net/DTD/sodipodi-0.dtd"
   xmlns:xlink="http://www.w3.org/1999/xlink"
   xmlns="http://www.w3.org/2000/svg"
   xmlns:svg="http://www.w3.org/2000/svg">
  <sodipodi:namedview
     id="namedview1"
     pagecolor="#505050"
     bordercolor="#eeeeee"
     borderopacity="1"
     inkscape:showpageshadow="0"
     inkscape:pageopacity="0"
     inkscape:pagecheckerboard="0"
     inkscape:deskcolor="#505050"
     inkscape:document-units="mm"
     inkscape:zoom="0.72426347"
     inkscape:cx="240.24406"
     inkscape:cy="275.45225"
     inkscape:window-width="1920"
     inkscape:window-height="1009"
     inkscape:window-x="-8"
     inkscape:window-y="-8"
     inkscape:window-maximized="1"
     inkscape:current-layer="layer1" />
  <defs
     id="defs1">
    <pattern
       inkscape:collect="always"
       xlink:href="#Wavy"
       id="pattern25"
       patternTransform="matrix(0.75595093,0,0,0.37797547,26.503335,34.515508)"
       x="0"
       y="0"
       preserveAspectRatio="none" />
    <pattern
       inkscape:collect="always"
       patternUnits="userSpaceOnUse"
       width="30.066020"
       height="5.1805778"
       id="Wavy"
       inkscape:stockid="Wavy"
       inkscape:isstock="true"
       inkscape:label="Wavy">
      <path
         style="stroke:none;"
         d="M 7.597,0.061 C 5.079,-0.187 2.656,0.302 -0.01,1.788 L -0.01,3.061 C 2.773,1.431 5.173,1.052 7.472,1.280 C 9.770,1.508 11.969,2.361 14.253,3.218 C 18.820,4.931 23.804,6.676 30.066,3.061 L 30.062,1.788 C 23.622,5.497 19.246,3.770 14.691,2.061 C 12.413,1.207 10.115,0.311 7.597,0.061 z "
         id="path786" />
    </pattern>
    <clipPath
       clipPathUnits="userSpaceOnUse"
       id="clipPath51">
      <path
         id="path51"
         style="stroke-width:0.0999999;stroke-linecap:square;paint-order:markers fill stroke;stop-color:#000000"
         d="m 1806.4991,-753.5228 h 1637.2646 v 66.90533 H 1806.4991 Z" />
    </clipPath>
    <pattern
       inkscape:collect="always"
       xlink:href="#pattern15-8"
       preserveAspectRatio="xMidYMid"
       id="pattern4"
       patternTransform="matrix(0.27614371,0,0,0.27614371,418.2411,107.90821)"
       x="0"
       y="0" />
    <pattern
       patternUnits="userSpaceOnUse"
       width="20"
       height="20"
       patternTransform="translate(445,105)"
       preserveAspectRatio="xMidYMid"
       style="fill:#000000"
       id="pattern15-8"
       inkscape:label="Inverted braid"
       inkscape:collect="always"
       inkscape:isstock="true">
      <path
         style="stroke-width:4.8561;stroke-linecap:square;paint-order:stroke markers fill;stop-color:#000000"
         d="M 0,0 V 10 H 10 C 5,10 0,5 0,0 Z M 10,10 V 0 H 20 C 15,0 10,5 10,10 Z m 0,10 V 10 H 0 c 5,0 10,5 10,10 z M 20,10 V 20 H 10 c 5,0 10,-5 10,-10 z"
         id="path11-3"
         sodipodi:nodetypes="cccc" />
    </pattern>
  </defs>
  <g
     inkscape:label="Layer 1"
     inkscape:groupmode="layer"
     id="layer1"
     transform="translate(-41.751839,-75.131042)">
    <circle
       style="fill:#005610;fill-opacity:1;stroke-width:0.253387"
       id="path1-3-8"
       cx="108.0492"
       cy="141.42841"
       r="66.297363" />
    <circle
       style="fill:#b3b3b3;fill-opacity:1;stroke-width:0.226859"
       id="path1-3"
       cx="108.37818"
       cy="141.45096"
       r="59.3564" />
    <circle
       style="fill:url(#pattern4);fill-opacity:1;stroke-width:0.22555"
       id="path1-3-6"
       cx="108.5575"
       cy="141.63033"
       r="59.014256" />
    <circle
       style="mix-blend-mode:normal;fill:#afafaf;fill-opacity:1;stroke-width:0.1388"
       id="path1-3-6-7-0"
       cx="108.43301"
       cy="141.56023"
       r="36.316402" />
    <circle
       style="mix-blend-mode:normal;fill:#8b2200;fill-opacity:1;stroke-width:0.106588"
       id="path1-3-6-7-0-3"
       cx="108.96297"
       cy="141.48514"
       r="27.888367" />
    <circle
       style="mix-blend-mode:normal;fill:url(#pattern25);fill-opacity:1;stroke-width:0.103796"
       id="path1-3-6-7-0-3-3"
       cx="108.59839"
       cy="141.42856"
       r="27.157738" />
  </g>
</svg>
